# xmcd CD database file
#
# Track frame offsets:
#	150
#	21569
#	36648
#	59746
#	74153
#	92915
#	135502
#	148239
#	170177
#	194874
#	209148
#
# Disc length: 2964 seconds
#
# Revision: 0
# Processed by: cddbd v1.5.2PL0 Copyright (c) Steve Scherf et al.
# Submitted via: CDex 1.70beta2
#
DISCID=ce0b920b
DTITLE=DUTCH ORCHESTRA - MOON DREAMS - REDISCOVERED MUSIC OF GIL EVANS AND GERRY MULLIGAN
DYEAR=2008
DGENRE=Jazz
TTITLE0=Spanish Dance
TTITLE1=Rose of the Rio Grande
TTITLE2=The Happy Stranger
TTITLE3=Poor Little Rich Girl
TTITLE4=Joost at the Roost
TTITLE5=Easy Living Medley
TTITLE6=The Major and the Minor
TTITLE7=Yardbird Suite
TTITLE8=Lover Man
TTITLE9=Brew's Tune
TTITLE10=Broadway
EXTD=YEAR: 2008
EXTT0=
EXTT1=
EXTT2=
EXTT3=
EXTT4=
EXTT5=
EXTT6=
EXTT7=
EXTT8=
EXTT9=
EXTT10=
PLAYORDER=
